<svg data-v-423bf9ae="" xmlns="http://www.w3.org/2000/svg" viewBox="0 0 444 90" class="iconLeft"><!----><!----><!----><g data-v-423bf9ae="" id="a7493875-293e-471a-9ebf-c9c41a0a68e8" fill="#ffffff" transform="matrix(6.150495259349082,0,0,6.150495259349082,69.00435309983104,12.818498021411422)"><path d="M1.30 9.63C1.30 10.19 2.95 10.19 2.95 9.63L2.95 1.22C2.95 0.56 1.30 1.26 1.30 1.92ZM11.91 8.57C11.79 8.62 11.69 8.64 11.59 8.64C11.31 8.64 11.17 8.44 11.17 8.04L11.17 7.52L11.17 5.73C11.17 4.26 10.32 3.37 8.92 3.37C7.98 3.37 7.11 3.71 6.43 4.38L6.20 3.67C6.06 3.29 4.83 3.25 4.83 3.78L4.83 9.63C4.83 10.19 6.47 10.19 6.47 9.63L6.47 5.77C7.07 5.08 7.67 4.82 8.23 4.82C9.07 4.82 9.53 5.26 9.53 6.30L9.53 7.20L9.53 8.29C9.53 9.65 10.09 10.11 10.82 10.11C11.17 10.11 11.54 10.01 11.91 9.87C12.50 9.62 12.47 8.29 11.91 8.57ZM21.24 9.63C20.19 6.45 18.21 2.03 17.33 1.09C17.23 1.01 17.05 1.01 16.95 1.09C16.07 2.03 14.10 6.45 13.05 9.63C12.85 10.21 14.74 10.21 14.91 9.63C15.12 8.93 15.33 8.27 15.54 7.62L18.75 7.62C18.96 8.27 19.17 8.93 19.38 9.63C19.54 10.19 21.45 10.21 21.24 9.63ZM16.02 6.23C16.34 5.33 16.70 4.44 17.15 3.50C17.58 4.44 17.95 5.33 18.27 6.23ZM29.13 8.57C29.01 8.62 28.91 8.64 28.81 8.64C28.53 8.64 28.39 8.44 28.39 8.04L28.39 7.52L28.39 5.73C28.39 4.26 27.54 3.37 26.14 3.37C25.20 3.37 24.33 3.71 23.65 4.38L23.42 3.67C23.28 3.29 22.05 3.25 22.05 3.78L22.05 9.63C22.05 10.19 23.69 10.19 23.69 9.63L23.69 5.77C24.29 5.08 24.89 4.82 25.45 4.82C26.29 4.82 26.75 5.26 26.75 6.30L26.75 7.20L26.75 8.29C26.75 9.65 27.31 10.11 28.04 10.11C28.39 10.11 28.76 10.01 29.13 9.87C29.72 9.62 29.69 8.29 29.13 8.57ZM37.38 8.48C37.25 8.53 37.14 8.55 37.06 8.55C36.78 8.55 36.65 8.36 36.65 7.97L36.65 7.18L36.65 0.62C36.65-0.04 35.01 0.66 35.01 1.32L35.01 4.12C34.44 3.64 33.66 3.37 32.79 3.37C31.30 3.37 30.30 4.70 30.30 6.69C30.30 8.72 31.30 10.04 32.79 10.04C33.74 10.04 34.57 9.70 35.14 9.14C35.34 9.79 35.78 10.02 36.32 10.02C36.65 10.02 37.02 9.93 37.38 9.79C37.98 9.52 37.95 8.22 37.38 8.48ZM33.50 8.61C32.48 8.62 31.96 7.97 31.96 6.69C31.96 5.46 32.48 4.80 33.50 4.82C34.05 4.82 34.57 5.04 35.01 5.46L35.01 7.91C34.58 8.36 34.05 8.61 33.50 8.61ZM42.49 10.05C45.09 10.05 46.63 8.37 46.63 5.54C46.63 2.70 45.09 1.02 42.49 1.02C39.89 1.02 38.35 2.70 38.35 5.54C38.35 8.37 39.89 10.05 42.49 10.05ZM42.49 8.61C40.95 8.61 40.07 7.48 40.07 5.54C40.07 3.60 40.95 2.46 42.49 2.46C44.02 2.46 44.91 3.60 44.91 5.54C44.91 7.48 44.02 8.61 42.49 8.61ZM54.87 8.48C54.74 8.54 54.64 8.57 54.54 8.57C54.26 8.57 54.12 8.37 54.12 7.97L54.12 3.78C54.12 3.22 52.49 3.22 52.49 3.78L52.49 7.64C51.88 8.34 51.28 8.61 50.72 8.61C49.88 8.61 49.42 8.15 49.42 7.13L49.42 3.54C49.42 2.88 47.80 3.58 47.80 4.24L47.80 7.70C47.80 9.16 48.65 10.04 50.05 10.04C51.00 10.04 51.88 9.70 52.57 9.00C52.75 9.76 53.21 10.04 53.77 10.04C54.12 10.04 54.49 9.94 54.87 9.80C55.45 9.53 55.43 8.22 54.87 8.48ZM60.33 8.26C59.01 9.02 58.23 8.76 58.23 7.45L58.23 5.12L60.42 5.12C60.98 5.12 60.98 3.68 60.42 3.68L58.23 3.68L58.23 2.03C58.23 1.50 56.92 1.50 56.85 1.90L56.57 3.68L55.72 3.68C55.16 3.68 55.16 5.12 55.72 5.12L56.57 5.12L56.57 7.39C56.57 9.95 58.53 10.58 60.33 9.59C60.80 9.30 60.79 8.01 60.33 8.26Z"></path></g><!----><g data-v-423bf9ae="" id="95be25d0-f4b0-4355-ba7d-d1dfd4dde10d" transform="matrix(1.5,0,0,1.5,-19,-3.0000001192092896)" stroke="none" fill="#010033"><path d="M20 62h30c.1 0 .2 0 .3-.1h.2c.1 0 .1-.1.2-.1.1-.1.1-.2.2-.3v-.1c0-.1.1-.2.1-.3V3c0-.1 0-.2-.1-.3v-.1c0-.1-.1-.2-.2-.3l-.2-.2h-.1-.1c-.1-.1-.2-.1-.3-.1H20c-.6 0-1 .4-1 1v24c0 .6.4 1 1 1s1-.4 1-1V4h25.3l-9.8 5.8c-.3.2-.5.5-.5.9v43.9c0 .4.2.7.6.9l9.2 4.6H21V39c0-.6-.4-1-1-1s-1 .4-1 1v22c0 .6.4 1 1 1zm18-50.8l11-6.5v54.6l-11-5.5V11.2z"></path><path d="M25.6 39.7c.1.1.3.1.4.1.2 0 .5-.1.6-.2l7.1-5.8c.2-.2.4-.5.4-.8s-.1-.6-.4-.8l-7.1-5.8c-.3-.2-.7-.3-1.1-.1-.3.2-.6.5-.6.9V30H14c-.6 0-1 .4-1 1v4c0 .6.4 1 1 1h11v2.8c0 .4.2.7.6.9zM27 29.3l4.5 3.7-4.5 3.7v-7.4zM15 34v-2h10v2H15z"></path></g><!----></svg>